<svg width="53" height="76" viewBox="0 0 53 76" xmlns="http://www.w3.org/2000/svg"><title>golova 2</title><path d="M30.778 42.192c-1.41-.206-2.89-.316-4.444-.316-1.565 0-3.06.11-4.48.32.178-3.636-.124-9.634-.99-19.604C18.985.916 13.505-1.446 8.12 1.254c-5.387 2.7-10.005 11.3-7.104 22.04 1.85 6.855 7.26 17.33 11.098 22.382-7.44 4.62-10.76 12.56-9.287 18.683 1.418 5.897 10.78 10.752 23.507 10.752 12.726 0 22.204-4.96 23.507-10.753 1.373-6.102-1.89-14.013-9.25-18.64 3.84-5.035 9.272-15.55 11.128-22.423 2.9-10.74-1.716-19.342-7.102-22.04C39.23-1.444 33.92.883 31.87 22.593c-.942 9.965-1.27 15.96-1.092 19.598zm-4.468 19.5c8.78 0 16.893-2.782 16.893-4.372 0-4.104-6.683-10.032-16.893-10.032S9.43 53.174 9.417 57.32c-.005 1.617 8.11 4.372 16.893 4.372zm-11.354-18.83c.398.687.378.648.614 1.038.727-.258 1.903-.736 3.002-1.026.02-4.98-.488-8.255-1.392-17.365C15.63 9.89 13.23 7.9 11.047 9.537s-3.835 7.54-2.235 15.388c1.16 5.68 4.414 14.942 6.144 17.935zm22.7 0c-.398.687-.377.648-.614 1.038-.727-.258-1.903-.736-3.002-1.026-.02-4.98.488-8.255 1.392-17.365 1.55-15.62 3.95-17.61 6.133-15.972s3.836 7.54 2.235 15.388c-1.16 5.68-4.414 14.942-6.144 17.935z" fill="#fff" fill-rule="evenodd"/></svg>