<svg width="92" height="19" viewBox="0 0 92 19" xmlns="http://www.w3.org/2000/svg"><title>XISTORE curves</title><g fill="none" fill-rule="evenodd"><path d="M14.704 5.096c.264-.384.264-1.2.048-1.536-.672-1.032-1.8-2.16-2.664-2.472-.36-.12-.936.24-1.08.432-.648.84-1.8 2.76-2.76 4.512-.576-2.4-1.296-4.896-1.92-4.896-1.032 0-3.408.672-4.056 1.392-.336.36-.216.84-.048 1.272.648 1.704 1.608 3.72 2.712 5.568-1.536 1.608-3.72 5.016-4.152 5.664-.264.384-.288 1.176-.048 1.512.672.912 1.968 1.752 2.832 2.064.36.12.648.072.84-.24.792-1.272 1.992-3.504 2.928-5.352.696 2.64 1.752 5.808 2.448 5.808 1.032 0 2.952-1.2 3.6-1.92.336-.36.216-.84.048-1.272-.744-1.896-1.536-3.864-2.784-5.88 1.32-1.44 3.6-3.984 4.056-4.656zM22.024 2.456c.072-.384-.12-.576-.504-.72-.6-.24-2.856-.576-3.672-.576-.384 0-.528.24-.576.456-.384 1.368-1.632 10.704-1.632 14.712 0 .312.072.576.24.792.576.72 2.496 1.512 4.104 1.512.36 0 .552-.168.552-.504 0-5.616 1.032-12.936 1.488-15.672z" fill="#FF6700"/><path d="M29.344 13.256c.264.888-.12 1.128-1.008 1.128-.504 0-1.56-.096-2.64-.672-.528-.288-1.536-1.32-2.208-1.104-.288.096-.48.264-.456 1.272.024.72.504 2.352 1.632 3.192 1.008.744 2.304 1.704 5.184 1.704 2.28 0 4.608-1.368 4.608-4.536 0-5.064-6.624-2.976-6.504-6.816.024-1.2 1.152-2.208 2.232-2.208.84 0 1.2.696.768 2.208-.312 1.056-.24 1.584.96 1.824.552.168 1.008.36 1.344.264.648-.168.96-.96 1.08-1.176.984-1.752.984-2.976 1.104-4.008.12-1.032-.744-1.8-1.656-2.184-1.176-.504-2.352-.984-4.272-.984-2.832 0-6.288 2.688-6.288 6.312 0 4.728 5.616 4.104 6.12 5.784zm8.904-7.368c.72-.072 1.584-.096 2.52-.096-.144 1.392-.888 6.48-.936 10.464 0 .312.072.576.24.792.576.72 2.16 1.464 3.768 1.536.6.024.936-.6.936-1.656.024-5.04.432-6.624.672-9.36.048-.504.12-1.728-1.224-1.92h-.12c2.976 0 5.184.36 5.544.384.792.024.912-.648.792-1.056-.432-1.56-1.2-3.12-1.728-3.384-.312-.168-2.304-.216-3.096-.264-3.624-.192-8.352-.048-9.576.12-.336.048-.336.36-.312.768.096 1.176.816 2.544 1.008 2.76.504.6.624.84 1.512.912zm18.48-4.584c-3.48 0-6.24 4.512-6.24 10.272 0 3.84 1.656 5.712 2.64 6.36.96.648 2.88 1.032 4.56 1.032 3.48 0 6.216-4.488 6.216-10.272 0-3.816-1.632-5.688-2.616-6.336-.984-.624-2.88-1.056-4.56-1.056zm.912 3.744c.744 0 1.44.504 1.44 3.072 0 4.056-.936 6.408-1.416 6.84-.12.12-.36.288-.864.288-.744 0-1.44-.528-1.44-3.048 0-4.056.936-6.408 1.392-6.888.12-.12.384-.264.888-.264zm7.8-.408c.144.36.792 1.608 1.08 1.896 0 .024.024.024.024.048-.288 1.488-.768 5.424-.864 9.288 0 .312.072.576.24.792.576.72 2.064 1.608 3.672 1.608.36 0 .528-.168.552-.504.12-2.664.24-4.56.408-6.12.984 2.712 2.976 6.72 4.104 6.744 1.032.024 2.688-1.728 3.144-2.448.264-.432.408-.864.024-1.224-.552-.504-2.04-1.92-3.048-3.24 2.112-1.008 2.832-3.096 2.832-5.856 0-1.152-.6-2.376-1.176-2.688-.624-.336-3.288-1.584-4.416-1.584-2.76 0-5.88 1.92-6.456 2.376-.24.192-.264.504-.12.912zm5.664 2.616c.12-.792-.432-1.176-.792-1.32-.12-.024-.24-.072-.408-.072.528-.384 1.104-.672 1.68-.672 1.272 0 1.92.84 1.92 1.728 0 1.632-1.392 3.024-2.808 3.288.12-1.032.264-1.968.408-2.952zm17.472 3.936c.216 0 .624-.384.696-.6.24-.648.6-2.52-.048-2.736-1.128-.36-2.76-.144-4.176.12.096-.6.216-1.152.312-1.68 0-.048.024-.096.024-.144 0-.336-.24-.6-.528-.816-.192-.12-.48-.192-.864-.168 1.944-.48 3.888-.36 6.672-.36.216 0 .624-.384.696-.6.24-.648.6-2.544.048-2.928-.288-.192-1.056-.336-1.848-.336-3.624 0-7.584.312-9.288 1.8-.24.216-.696.864-.528 1.248.216.576.528 1.752.768 2.04l.072.072c-.024.024-.024.048-.024.072-.6 2.328-1.176 5.664-1.296 9.432 0 .24.048.672.12.864 0 .12.264.72.336.792 1.2 1.44 3.648 1.584 5.976 1.176 1.68-.288 3.384-.12 4.032-.48.312-.168.6-.408.792-1.104.168-.744.504-1.104.072-2.304-.096-.36-.576-.384-.84-.384-.984 0-3.48.12-5.256.624-.696.072-.408-.192-.408-.696.12-.912.24-1.728.36-2.472 1.176-.36 2.664-.432 4.128-.432z" fill="#fff"/></g></svg>